Patient4_TMGait_0pt7_01_left_36_GRF.mot
version=1
nRows=26
nColumns=19
inDegrees=no
endheader
time	F1x	F1y	F1z	M1x	M1y	M1z	F2x	F2y	F2z	M2x	M2y	M2z	EC1x	EC1y	EC1z	EC2x	EC2y	EC2z
41.56	14.2407	10.7298	7.6075	-5.1698	0.08465	17.1876	-31.8435	707.8265	-50.2525	244.5221	77.0365	786.0708	-0.0592	0.0182	-0.0073	-0.0462	0.0165	0.9585
41.5719	9.4118	7.7438	5.307	-3.7413	-0.14301	12.0318	-30.8531	720.1259	-52.7833	250.1065	76.212	796.5149	-0.0592	0.0182	-0.0073	-0.0462	0.0165	0.9585
41.5837	5.321	5.2858	3.2962	-2.5378	-0.30548	7.7861	-29.7312	734.3133	-54.6745	256.2423	75.0284	808.1186	-0.0592	0.0182	-0.0073	-0.0462	0.0165	0.9585
41.5956	2.2061	3.4772	1.7271	-1.6328	-0.41162	4.6557	-28.402	749.5604	-55.7764	262.5554	73.4886	820.0547	-0.0592	0.0182	-0.0073	-0.0462	0.0165	0.9585
41.6074	0.051205	2.2729	0.62232	-1.019	-0.48095	2.5644	-26.7521	764.8092	-56.1572	268.6491	71.6438	831.3	-0.0592	0.0182	-0.0073	-0.0462	0.0165	0.9585
41.6193	-1.294	1.5847	-0.079773	-0.65252	-0.52584	1.3657	-24.6786	778.9019	-55.973	274.1209	69.5461	840.7669	-0.0592	0.0182	-0.0073	-0.0462	0.0165	0.9585
41.6311	-2.0133	1.2362	-0.46473	-0.45651	-0.55699	0.7965	-22.1128	790.666	-55.4341	278.5712	67.273	847.367	-0.0592	0.0182	-0.0073	-0.0462	0.0165	0.9585
41.643	-2.3307	1.0833	-0.62994	-0.36055	-0.58612	0.62077	-19.0342	799.0804	-54.7206	281.6591	64.8816	850.1714	-0.0592	0.0182	-0.0073	-0.0462	0.0165	0.9585
41.6549	-2.3928	0.96483	-0.64229	-0.29197	-0.62982	0.56653	-15.4961	803.4084	-53.9756	283.1476	62.4293	848.567	-0.0592	0.0182	-0.0073	-0.0462	0.0165	0.9585
41.6667	-2.3483	0.73654	-0.56365	-0.18618	-0.70248	0.41557	-11.6053	803.3142	-53.2977	282.9391	59.9728	842.361	-0.0592	0.0182	-0.0073	-0.0462	0.0165	0.9585
41.6786	-2.2773	0.26526	-0.42049	0.011747	-0.82196	-0.054653	-7.5132	798.8746	-52.7314	281.081	57.5592	831.7812	-0.0592	0.0182	-0.0073	-0.0462	0.0165	0.9585
41.6904	-2.2383	-0.55015	-0.24395	0.34326	-0.98376	-0.97095	-3.3789	790.549	-52.3373	277.7537	55.2773	817.426	-0.0592	0.0182	-0.0073	-0.0462	0.0165	0.9585
41.7023	-2.2155	-1.7735	-0.04218	0.83309	-1.176	-2.4366	0.65119	779.1301	-52.1623	273.2556	53.2189	800.2011	-0.0592	0.0182	-0.0073	-0.0462	0.0165	0.9585
41.7141	-2.193	-3.3794	0.15657	1.4731	-1.3586	-4.417	4.4394	765.673	-52.2633	267.9798	51.4914	781.2455	-0.0592	0.0182	-0.0073	-0.0462	0.0165	0.9585
41.726	-2.0549	-5.2372	0.3259	2.2094	-1.4579	-6.7508	7.8775	751.4538	-52.6583	262.3966	50.161	761.8876	-0.0592	0.0182	-0.0073	-0.0462	0.0165	0.9585
41.7379	-1.7014	-7.0029	0.41434	2.9059	-1.3691	-8.9987	10.8995	737.8426	-53.3626	257.0064	49.2765	743.5179	-0.0592	0.0182	-0.0073	-0.0462	0.0165	0.9585
41.7497	-0.96037	-8.0908	0.35731	3.3289	-0.94919	-10.4412	13.4911	726.1277	-54.3691	252.2807	48.848	727.4003	-0.0592	0.0182	-0.0073	-0.0462	0.0165	0.9585
41.7616	0.33351	-7.5633	0.054068	3.1087	-0.014375	-9.9087	15.6873	717.3592	-55.6861	248.5979	48.8831	714.5288	-0.0592	0.0182	-0.0073	-0.0462	0.0165	0.9585
41.7734	2.3477	-4.1391	-0.60342	1.7362	1.6346	-5.8347	17.5708	712.1351	-57.2861	246.1744	49.3351	705.4313	-0.0592	0.0182	-0.0073	-0.0462	0.0165	0.9585
41.7853	5.1578	3.806	-1.746	-1.4274	4.1934	3.8007	19.2608	710.5103	-59.1073	245.0308	50.1039	700.1037	-0.0592	0.0182	-0.0073	-0.0462	0.0165	0.9585
41.7971	8.7442	18.067	-3.4766	-7.081	7.7736	21.2276	20.911	711.9375	-61.0343	244.978	51.0198	697.9469	-0.0592	0.0182	-0.0073	-0.0462	0.0165	0.9585
41.809	12.7887	40.3289	-5.8445	-15.8771	12.299	48.5685	22.6596	715.318	-62.879	245.6387	51.8418	697.8448	-0.0592	0.0182	-0.0073	-0.0462	0.0165	0.9585
41.8209	16.6354	71.6066	-8.7597	-28.2028	17.3757	87.1164	24.5975	719.0803	-64.3848	246.4771	52.2829	698.2382	-0.0592	0.0182	-0.0073	-0.0462	0.0165	0.9585
41.8327	19.0757	111.4552	-11.9242	-43.8621	22.1368	136.405	26.7202	721.2944	-65.2447	246.8367	52.0411	697.2593	-0.0592	0.0182	-0.0073	-0.0462	0.0165	0.9585
41.8446	18.3631	156.8768	-14.6861	-61.6549	25.0819	192.8162	28.9619	719.872	-65.1518	246.0108	50.8498	692.9216	-0.0592	0.0182	-0.0073	-0.0462	0.0165	0.9585
41.8564	13.0085	201.8524	-15.9959	-79.1825	24.3466	249.0231	31.1636	712.8813	-63.8515	243.3441	48.5314	683.4247	-0.0592	0.0182	-0.0073	-0.0462	0.0165	0.9585
